<svg xmlns:xlink="http://www.w3.org/1999/xlink" preserveAspectRatio="xMidYMid meet" data-bbox="41.501 20 116.999 160.001" viewBox="41.501 20 116.999 160.001" height="200" width="200" xmlns="http://www.w3.org/2000/svg" data-type="shape" role="presentation" aria-hidden="true">
    <g stroke="#5E97FF" fill="#757575" stroke-width="0px">
        <path d="M157.367 66.82c-3.105-14.146-10.205-25.614-21.1-34.083-14.606-11.356-31.093-15.144-48.998-11.261-10.993 2.385-20.647 7.708-28.696 15.821-8.462 8.531-13.882 18.86-16.109 30.7-1.122 5.953-1.262 11.473-.43 16.874.862 5.609 2.729 10.685 4.442 14.912 4.273 10.539 9.918 20.076 14.358 27.205 8.241 13.235 17.874 26.672 29.45 41.082a248.399 248.399 0 0 0 3.199 3.874l6.694 8.057 5.455-6.944c13.755-16.57 25.171-32.357 34.9-48.262 6.309-10.316 10.816-19.203 14.182-27.969 3.898-10.164 4.793-20.259 2.653-30.006zM119.04 91.152c-5.093 5.141-11.835 7.976-18.984 7.983h-.025c-14.797.001-26.848-12.115-26.872-27.02-.023-14.812 11.962-26.911 26.717-26.972 7.134-.006 13.868 2.764 18.978 7.868 5.141 5.136 7.982 11.955 8 19.2.019 7.109-2.756 13.835-7.814 18.941z" stroke="#5E97FF" fill="#757575" stroke-width="0px"></path>
    </g>
</svg>